PathFileType	4	(X/Y/Z)	T1_P2_NoVision_Movement_3_0-732.trc
DataRate	CameraRate	NumFrames	NumMarkers	Units	OrigDataRate	OrigDataStartFrame	OrigNumFrames
60	60	4	27	m	60	183	732
Frame#	Time	RHip			RKnee			RAnkle			RBigToe			RSmallToe			RHeel			LHip			LKnee			LAnkle			LBigToe			LSmallToe			LHeel			Neck			Head			Nose			RShoulder			RElbow			RWrist			RThumb			RIndex			RPinky			LShoulder			LElbow			LWrist			LThumb			LIndex			LPinky		
		X1	Y1	Z1	X2	Y2	Z2	X3	Y3	Z3	X4	Y4	Z4	X5	Y5	Z5	X6	Y6	Z6	X7	Y7	Z7	X8	Y8	Z8	X9	Y9	Z9	X10	Y10	Z10	X11	Y11	Z11	X12	Y12	Z12	X13	Y13	Z13	X14	Y14	Z14	X15	Y15	Z15	X16	Y16	Z16	X17	Y17	Z17	X18	Y18	Z18	X19	Y19	Z19	X20	Y20	Z20	X21	Y21	Z21	X22	Y22	Z22	X23	Y23	Z23	X24	Y24	Z24	X25	Y25	Z25	X26	Y26	Z26	X27	Y27	Z27
184	3.066666666666667	468.3997950975762	3605.419817384735	537.0518832886386	865.6812108304119	3644.404244266238	544.6164588820815	1254.638189577648	3711.2373283038787	621.2774762092413	1334.3431761424986	3619.6592355658304	601.6237990632279	1316.9033048372487	3635.4738032438177	548.766865970759	1280.6475346308732	3703.6979962689043	629.4270788109899	469.2550176519917	3506.0625144014793	733.6952570623318	892.7425461249991	3550.4773423623888	749.5108101266295	1245.1416270701188	3593.7955347334864	724.3391621700225	1327.6432319904238	3546.8821785240675	672.6276798069991	1279.3926648942577	3463.9960887711254	704.0271624858059	1284.1942108086052	3616.6969580764326	718.6764547293974	-117.76408486009132	3514.6849836204374	634.9276136163941	-373.4121766368221	3480.6355528849026	622.1117766908033	-231.97562002840883	3391.794763038088	566.1610758205256	-31.933135804161296	3628.110998101052	530.9873593611527	207.49574315690234	3703.001535753576	456.73568411180304	445.3312048450051	3639.744209104833	398.39265901614465	570.2263706179025	3548.66194960549	392.95099358980497	598.6734282406353	3578.196836514917	385.563694894396	588.5226017263931	3648.5203862344747	389.12103180570165	-14.847580315535435	3487.806231135914	807.7101395729642	244.43752162822932	3432.051867232054	833.2729127367677	492.7451064979439	3414.109303698652	824.5820471703606	605.3642799787801	3431.4380587053156	817.081304027398	610.1602619590519	3397.5444613419036	809.9571463002377	594.9213631594396	3331.38820964711	815.5455204205147
185	3.083333333333333	467.7514270724149	3605.514211891414	537.304733026449	867.4325224287965	3646.300962825061	547.031366379005	1252.2904534198049	3709.7987560002052	619.9068479193706	1334.426971800997	3621.3814179615133	601.6262351445952	1316.7762636879838	3639.7379037481323	549.9347725806592	1279.2745703230446	3705.100994303505	629.8023955781764	469.060644280279	3505.934840036976	733.6593643294509	892.5278935995748	3550.3801044297675	749.2303503362275	1245.7307118625406	3594.0528912302098	723.4065252589794	1328.2377552005219	3548.4597501977696	674.0393975584227	1279.7231784630503	3463.532196971263	703.7565627303338	1283.123146359398	3616.4136977683165	718.60244512596	-117.74177527483772	3514.7485521137883	635.0214762763433	-373.6978930766453	3480.250200698501	622.0664728181591	-232.392654560942	3386.284766028072	565.486298370049	-34.139249021007444	3628.955371284312	532.284396913002	206.5932670932251	3703.9060876182716	457.1932124260252	444.62542498785206	3634.4413862287693	397.3098662190113	571.2252320742963	3554.16041547079	394.46011843950106	599.4943520077978	3579.277309611128	385.8086843101874	589.061591951277	3649.15742433664	389.1738274048622	-14.937446101211501	3484.9090480687823	806.2917812995858	245.15651151336624	3432.2935992185494	833.4199541806353	492.8199746229013	3414.141078697082	824.580758020951	605.2075178327921	3431.131948984378	815.7799311344203	609.5040598231561	3394.215866238821	807.1466505006324	595.1769341218014	3332.2547529190438	816.4347415431897
186	3.1	465.91151427787014	3605.121519115843	537.4867346017168	867.8896703271894	3645.992594953426	548.7786643376807	1250.9772151449613	3710.0801340699863	619.7225816065402	1335.0178624306652	3624.8952671985458	603.5176204866659	1315.4096066273257	3641.4576602306624	550.303301608363	1278.2852432960074	3707.0205784630116	630.1418138181009	468.863116317783	3505.6961318146296	733.6106594417517	892.1719729891058	3550.56891470694	749.1370919444755	1245.9495767716933	3592.789435109177	722.123312284936	1327.7328760368782	3547.5957585593264	673.1898169376525	1280.3773835228633	3461.9682958249573	702.8897482500879	1282.4220935980113	3616.2144884458694	718.543467271579	-117.71363899877566	3514.8605965608567	635.1335984881409	-373.4416560116136	3480.5425433194046	622.3426262229709	-232.58231918806536	3382.70300521208	566.6768669749649	-37.233544873126974	3630.0570702344876	533.3326426727625	204.67413224318585	3703.407700789007	457.1160583290995	444.23490855559663	3632.514062733958	396.9215402283571	573.2386127540165	3561.799559344995	396.2689821379301	601.5594516740028	3581.1220799549105	386.3627397355333	590.2701132189578	3650.145044912324	389.4509329472461	-15.105244775968643	3479.9358389710633	804.4900911434914	246.0040423142076	3432.6040551574365	833.6230695155042	492.91114040516646	3414.136871474945	824.5943256271468	605.1173263788179	3430.8044301107902	815.0263419525479	608.4734017868515	3388.8395117164296	803.922697715964	595.0237671119933	3331.2447384198776	815.3552166610651
187	3.1166666666666667	463.6508742516743	3604.5269624653574	537.3160757756208	867.0264674367102	3644.849545470577	548.9824426574377	1250.0371596838315	3709.2799903422733	618.8245511527978	1336.066750425797	3629.459249477517	606.232327962395	1313.7552074769624	3640.8772323995163	549.9547728081202	1277.9010923340502	3707.954962464111	630.6035034103894	469.1920949601455	3505.7455475631773	733.6822243439585	891.5948510292702	3550.735220834198	749.2515456346666	1245.8328475285005	3590.833532902172	721.6053744913776	1327.1118107003354	3546.256033002841	672.3655713395902	1280.6709671335057	3459.9106453920476	701.9323483746841	1282.3901252938504	3616.1354757178797	718.5258672995575	-117.67552683380013	3514.9755815811077	635.24532961728	-373.3819586635941	3481.5307321548403	622.9463234751468	-232.5339601999397	3380.8228484463407	569.0051074901378	-40.1512679844894	3630.0587248281263	533.6644249489173	203.05750644351014	3701.751541519134	456.48817322242235	443.70084382594064	3633.17298305186	397.17709722122595	574.383058187276	3565.349603923842	397.06990086857024	603.4966590544625	3582.558012876142	386.85316044045067	591.4352105931989	3651.1337445909253	389.87774903142514	-15.238427822691598	3474.823391153515	803.8718591797057	246.83460417923942	3432.9111991068967	833.8345597214076	492.9885921094927	3414.027603994228	824.7220620964559	605.2804072120016	3430.523981684595	815.3097632137527	607.2529357516518	3382.221620334619	801.0680367119298	595.2380593167738	3330.282710844701	814.4497874596101
